HIERARCHY
ROOT Root
{
	OFFSET 0.00000 0.00000 0.00000
	CHANNELS 6 Xposition Yposition Zposition Zrotation Xrotation Yrotation
	JOINT Hips
	{
		OFFSET 0 0 0	
		CHANNELS 3 Zrotation Xrotation Yrotation
		JOINT Spine
		{
			OFFSET 0 4 0	
			CHANNELS 3 Zrotation Xrotation Yrotation
			JOINT Spine1
			{
				OFFSET 0 19.4 0	
				CHANNELS 3 Zrotation Xrotation Yrotation
				JOINT Spine2
				{
					OFFSET 0 16.6 0	
					CHANNELS 3 Zrotation Xrotation Yrotation
					JOINT LeftCollar
					{
						OFFSET 0 10 0	
						CHANNELS 3 Zrotation Xrotation Yrotation
						JOINT LeftArm
						{
							OFFSET 15.6 -2 3	
							CHANNELS 3 Zrotation Xrotation Yrotation
							JOINT LeftForeArm
							{
								OFFSET 3.5 -27 -1	
								CHANNELS 3 Zrotation Xrotation Yrotation
								JOINT LeftHand
								{
									OFFSET 1 -27 1	
									CHANNELS 3 Zrotation Xrotation Yrotation
									End Site
									{
										OFFSET 0 -15 0
									}
								}
							}
						}
					}
					JOINT RightCollar
					{
						OFFSET 0 10 0	
						CHANNELS 3 Zrotation Xrotation Yrotation
						JOINT RightArm
						{
							OFFSET -15.6 -2 3	
							CHANNELS 3 Zrotation Xrotation Yrotation
							JOINT RightForeArm
							{
								OFFSET -3.5 -27 -1	
								CHANNELS 3 Zrotation Xrotation Yrotation
								JOINT RightHand
								{
									OFFSET -1 -27 1	
									CHANNELS 3 Zrotation Xrotation Yrotation
									End Site
									{
										OFFSET 0 -15 0
									}
								}
							}
						}
					}
					JOINT Neck
					{
						OFFSET 0 10 0	
						CHANNELS 3 Zrotation Xrotation Yrotation
						JOINT Head
						{
							OFFSET 0 12.7 3	
							CHANNELS 3 Zrotation Xrotation Yrotation
							End Site
							{
								OFFSET 0 12.7 3
							}
						}
					}
				}
			}
		}
	}
	JOINT LeftHip
	{
		OFFSET 0 0 0	
		CHANNELS 3 Zrotation Xrotation Yrotation
		JOINT LeftUpLeg
		{
			OFFSET 8.8 -6 0	
			CHANNELS 3 Zrotation Xrotation Yrotation
			JOINT LeftLeg
			{
				OFFSET 0 -39 2	
				CHANNELS 3 Zrotation Xrotation Yrotation
				JOINT LeftFoot
				{
					OFFSET 0 -43 -2	
					CHANNELS 3 Zrotation Xrotation Yrotation
					JOINT LeftFootFront
					{
						OFFSET 0 -7 8.5	
						CHANNELS 3 Zrotation Xrotation Yrotation
						End Site
						{
							OFFSET 0 -0.5 9
						}
					}
				}
				JOINT LeftHeel
				{
					OFFSET 0 -43 -2	
					CHANNELS 3 Zrotation Xrotation Yrotation
					End Site
					{
						OFFSET 0 -7.5 -5
					}
				}
			}
		}
	}
	JOINT RightHip
	{
		OFFSET 0 0 0	
		CHANNELS 3 Zrotation Xrotation Yrotation
		JOINT RightUpLeg
		{
			OFFSET -8.8 -6 0	
			CHANNELS 3 Zrotation Xrotation Yrotation
			JOINT RightLeg
			{
				OFFSET 0 -39 2	
				CHANNELS 3 Zrotation Xrotation Yrotation
				JOINT RightFoot
				{
					OFFSET 0 -43 -2	
					CHANNELS 3 Zrotation Xrotation Yrotation
					JOINT RightFootFront
					{
						OFFSET 0 -7 8.5	
						CHANNELS 3 Zrotation Xrotation Yrotation
						End Site
						{
							OFFSET 0 -0.5 9
						}
					}
				}
				JOINT RightHeel
				{
					OFFSET 0 -43 -2	
					CHANNELS 3 Zrotation Xrotation Yrotation
					End Site
					{
						OFFSET 0 -7.5 -5
					}
				}
			}
		}
	}
}
MOTION
Frames: 14
Frame Time: 0.025
0 96.314 0 -0 0 -0 -1.1129 2.3442 4.2305 0.30526 -1.848 -1.3857 0.30526 -1.848 -1.3857 0.25941 -1.5518 -1.1646 -0 0 -0 -0.48161 0.89956 2.9678 0.17731 2.076 1.1026 -0 0 -0 -0 0 -0 0.90673 1.3032 -1.3124 -0.1808 0.69486 -0.5199 -0 0 -0 1.6388 2.3935 -0.59956 1.6388 2.3935 -0.59956 -1.1129 2.3442 4.2305 1.0879 -2.7356 -2.7544 -0.95401 3.1445 -2.9406 -0 0 -0 -0 0 -0 -0 0 -0 -1.1129 2.3442 4.2305 1.0595 -1.1437 -2.4524 -0.17308 0.98347 -0.91495 -0 0 -0 -0 0 -0 -0 0 -0 
0 96.314 0 -0 0 -0 -1.108 2.3295 4.2184 0.30475 -1.8394 -1.3795 0.30475 -1.8394 -1.3795 0.25895 -1.5446 -1.1594 -0 0 -0 -0.4913 0.8957 2.9587 0.18243 2.0657 1.1008 -0 0 -0 -0 0 -0 0.90735 1.2937 -1.2978 -0.16658 0.69084 -0.53311 -0 0 -0 1.6388 2.4003 -0.60341 1.6388 2.4003 -0.60341 -1.108 2.3295 4.2184 1.0782 -2.7207 -2.7463 -0.95109 3.1509 -2.9299 -0 0 -0 -0 0 -0 -0 0 -0 -1.108 2.3295 4.2184 1.0578 -1.1376 -2.4529 -0.17675 0.99418 -0.90289 -0 0 -0 -0 0 -0 -0 0 -0 
0 96.314 0 -0 0 -0 -1.1013 2.3091 4.2016 0.30294 -1.8286 -1.3707 0.30294 -1.8286 -1.3707 0.2574 -1.5356 -1.152 -0 0 -0 -0.50084 0.89304 2.9468 0.18958 2.0531 1.0981 -0 0 -0 -0 0 -0 0.909 1.2835 -1.2861 -0.14392 0.68586 -0.54358 -0 0 -0 1.6392 2.4117 -0.61352 1.6392 2.4117 -0.61352 -1.1013 2.3091 4.2016 1.0682 -2.6967 -2.7302 -0.95213 3.1545 -2.9191 -0 0 -0 -0 0 -0 -0 0 -0 -1.1013 2.3091 4.2016 1.0548 -1.1291 -2.4536 -0.18106 1.0112 -0.88553 -0 0 -0 -0 0 -0 -0 0 -0 
0 96.314 0 -0 0 -0 -1.0942 2.2896 4.1848 0.29877 -1.8204 -1.3611 0.29877 -1.8204 -1.3611 0.25386 -1.5287 -1.1439 -0 0 -0 -0.50309 0.89572 2.9365 0.19722 2.0442 1.0958 -0 0 -0 -0 0 -0 0.91327 1.2779 -1.2913 -0.11732 0.68367 -0.54004 -0 0 -0 1.6422 2.4241 -0.63034 1.6422 2.4241 -0.63034 -1.0942 2.2896 4.1848 1.0592 -2.671 -2.7059 -0.9561 3.154 -2.9155 -0 0 -0 -0 0 -0 -0 0 -0 -1.0942 2.2896 4.1848 1.0492 -1.1209 -2.4526 -0.18377 1.0286 -0.86929 -0 0 -0 -0 0 -0 -0 0 -0 
0 96.314 0 -0 0 -0 -1.0858 2.2742 4.1689 0.29152 -1.8165 -1.3515 0.29152 -1.8165 -1.3515 0.24774 -1.5254 -1.1358 -0 0 -0 -0.49661 0.90483 2.932 0.20391 2.0401 1.0982 -0 0 -0 -0 0 -0 0.91903 1.2787 -1.3084 -0.08852 0.68486 -0.52933 -0 0 -0 1.6489 2.4349 -0.65044 1.6489 2.4349 -0.65044 -1.0858 2.2742 4.1689 1.0485 -2.6496 -2.6762 -0.96135 3.1539 -2.9205 -0 0 -0 -0 0 -0 -0 0 -0 -1.0858 2.2742 4.1689 1.0387 -1.114 -2.4462 -0.18391 1.0428 -0.85899 -0 0 -0 -0 0 -0 -0 0 -0 
0 96.314 0 -0 0 -0 -1.0765 2.2628 4.1535 0.28189 -1.8148 -1.3426 0.28189 -1.8148 -1.3426 0.23963 -1.524 -1.1283 -0 0 -0 -0.48328 0.91483 2.9336 0.20666 2.0392 1.1096 -0 0 -0 -0 0 -0 0.92554 1.283 -1.3231 -0.060384 0.68704 -0.52999 -0 0 -0 1.6593 2.4419 -0.67019 1.6593 2.4419 -0.67019 -1.0765 2.2628 4.1535 1.0362 -2.6329 -2.6498 -0.96643 3.156 -2.923 -0 0 -0 -0 0 -0 -0 0 -0 -1.0765 2.2628 4.1535 1.0258 -1.1071 -2.4342 -0.1823 1.0535 -0.85369 -0 0 -0 -0 0 -0 -0 0 -0 
0 96.314 0 -0 0 -0 -1.0678 2.2532 4.1383 0.27121 -1.8135 -1.3338 0.27121 -1.8135 -1.3338 0.23064 -1.5229 -1.1209 -0 0 -0 -0.4665 0.92199 2.9352 0.20498 2.0395 1.1303 -0 0 -0 -0 0 -0 0.93439 1.2869 -1.3318 -0.039277 0.69062 -0.54855 -0 0 -0 1.6723 2.4457 -0.68847 1.6723 2.4457 -0.68847 -1.0678 2.2532 4.1383 1.0244 -2.6184 -2.6271 -0.97102 3.1605 -2.9203 -0 0 -0 -0 0 -0 -0 0 -0 -1.0678 2.2532 4.1383 1.0141 -1.098 -2.42 -0.18055 1.0608 -0.84807 -0 0 -0 -0 0 -0 -0 0 -0 
0 96.314 0 -0 0 -0 -1.0602 2.2443 4.1242 0.26035 -1.814 -1.3253 0.26035 -1.814 -1.3253 0.2215 -1.5234 -1.1138 -0 0 -0 -0.45014 0.93323 2.9319 0.20069 2.0388 1.1566 -0 0 -0 -0 0 -0 0.94424 1.2934 -1.34 -0.027722 0.69722 -0.57514 -0 0 -0 1.6862 2.4509 -0.70597 1.6862 2.4509 -0.70597 -1.0602 2.2443 4.1242 1.0134 -2.6061 -2.6016 -0.97609 3.169 -2.9201 -0 0 -0 -0 0 -0 -0 0 -0 -1.0602 2.2443 4.1242 1.0053 -1.0865 -2.408 -0.17971 1.0662 -0.84018 -0 0 -0 -0 0 -0 -0 0 -0 
0 96.314 0 -0 0 -0 -1.0531 2.2364 4.1125 0.25035 -1.8184 -1.319 0.25035 -1.8184 -1.319 0.21309 -1.5271 -1.1084 -0 0 -0 -0.43908 0.95555 2.9272 0.19634 2.0362 1.1804 -0 0 -0 -0 0 -0 0.95321 1.3069 -1.349 -0.024938 0.70599 -0.60174 -0 0 -0 1.698 2.4609 -0.72076 1.698 2.4609 -0.72076 -1.0531 2.2364 4.1125 1.0022 -2.5974 -2.5745 -0.9803 3.1812 -2.9245 -0 0 -0 -0 0 -0 -0 0 -0 -1.0531 2.2364 4.1125 0.99922 -1.0756 -2.4021 -0.18115 1.0737 -0.82859 -0 0 -0 -0 0 -0 -0 0 -0 
0 96.314 0 -0 0 -0 -1.046 2.2293 4.1027 0.24168 -1.8248 -1.315 0.24168 -1.8248 -1.315 0.20582 -1.5325 -1.105 -0 0 -0 -0.43506 0.98338 2.9259 0.1942 2.0317 1.1928 -0 0 -0 -0 0 -0 0.95902 1.3232 -1.3561 -0.026824 0.71581 -0.63054 -0 0 -0 1.707 2.4749 -0.73335 1.707 2.4749 -0.73335 -1.046 2.2293 4.1027 0.99052 -2.5905 -2.549 -0.9818 3.1946 -2.9299 -0 0 -0 -0 0 -0 -0 0 -0 -1.046 2.2293 4.1027 0.99278 -1.0669 -2.4024 -0.1839 1.0841 -0.81264 -0 0 -0 -0 0 -0 -0 0 -0 
0 96.314 0 -0 0 -0 -1.0381 2.2206 4.0931 0.23319 -1.8289 -1.3115 0.23319 -1.8289 -1.3115 0.19869 -1.5359 -1.1021 -0 0 -0 -0.43305 1.0051 2.9272 0.19476 2.0264 1.1909 -0 0 -0 -0 0 -0 0.96377 1.3362 -1.3598 -0.029456 0.72511 -0.66479 -0 0 -0 1.7166 2.4895 -0.74623 1.7166 2.4895 -0.74623 -1.0381 2.2206 4.0931 0.97814 -2.5826 -2.5269 -0.98322 3.2074 -2.9322 -0 0 -0 -0 0 -0 -0 0 -0 -1.0381 2.2206 4.0931 0.98447 -1.0589 -2.4066 -0.18755 1.0958 -0.79472 -0 0 -0 -0 0 -0 -0 0 -0 
0 96.314 0 -0 0 -0 -1.0305 2.2085 4.0836 0.22451 -1.8285 -1.3078 0.22451 -1.8285 -1.3078 0.19138 -1.5356 -1.099 -0 0 -0 -0.42972 1.0157 2.9267 0.19761 2.0211 1.1778 -0 0 -0 -0 0 -0 0.97044 1.3468 -1.3622 -0.032768 0.72824 -0.69887 -0 0 -0 1.729 2.503 -0.76124 1.729 2.503 -0.76124 -1.0305 2.2085 4.0836 0.96593 -2.5699 -2.5078 -0.98577 3.2184 -2.9321 -0 0 -0 -0 0 -0 -0 0 -0 -1.0305 2.2085 4.0836 0.97652 -1.0495 -2.4137 -0.19208 1.1086 -0.77592 -0 0 -0 -0 0 -0 -0 0 -0 
0 96.314 0 -0 0 -0 -1.0234 2.1922 4.074 0.21545 -1.8257 -1.3026 0.21545 -1.8257 -1.3026 0.18376 -1.5333 -1.0946 -0 0 -0 -0.42374 1.0223 2.9181 0.20235 2.015 1.1581 -0 0 -0 -0 0 -0 0.98406 1.3583 -1.3682 -0.039626 0.72589 -0.72637 -0 0 -0 1.744 2.5179 -0.78075 1.744 2.5179 -0.78075 -1.0234 2.1922 4.074 0.95405 -2.5507 -2.4896 -0.98682 3.2281 -2.931 -0 0 -0 -0 0 -0 -0 0 -0 -1.0234 2.1922 4.074 0.97068 -1.0373 -2.4184 -0.19608 1.1205 -0.76037 -0 0 -0 -0 0 -0 -0 0 -0 
0 96.314 0 -0 0 -0 -1.0162 2.1733 4.064 0.20619 -1.8252 -1.2958 0.20619 -1.8252 -1.2958 0.17596 -1.5329 -1.0888 -0 0 -0 -0.41666 1.0366 2.9036 0.20804 2.0072 1.1349 -0 0 -0 -0 0 -0 1.0015 1.3777 -1.3751 -0.046528 0.72137 -0.74701 -0 0 -0 1.7602 2.5375 -0.80512 1.7602 2.5375 -0.80512 -1.0162 2.1733 4.064 0.94037 -2.527 -2.4762 -0.98549 3.2361 -2.9253 -0 0 -0 -0 0 -0 -0 0 -0 -1.0162 2.1733 4.064 0.96638 -1.0235 -2.4169 -0.20033 1.1305 -0.75327 -0 0 -0 -0 0 -0 -0 0 -0 
